{"glyphs":{"0":{"ha":825,"x_min":0,"x_max":0,"o":"m 413 -21 b 756 486 644 -21 756 218 b 413 993 756 754 644 993 b 69 486 181 993 69 754 b 413 -21 69 218 181 -21 z m 413 -1 b 182 486 258 -1 182 226 b 413 974 182 746 258 974 b 643 486 564 975 643 746 b 413 -1 643 226 564 -3 z "},"1":{"ha":483,"x_min":0,"x_max":0,"o":"m 428 0 l 428 15 l 368 19 b 296 118 326 22 296 53 l 296 971 l 283 974 l 46 832 l 51 818 l 118 849 b 201 807 168 872 201 856 l 201 118 b 119 19 201 53 160 22 l 58 15 l 58 0 z "},"2":{"ha":735,"x_min":0,"x_max":0,"o":"m 638 0 l 690 246 l 674 246 b 442 92 628 114 574 92 l 163 92 l 343 289 b 633 729 458 411 633 538 b 351 993 633 892 496 993 b 56 776 200 993 68 892 b 108 713 51 735 79 713 b 171 775 135 713 161 732 b 354 974 192 878 239 974 b 525 736 464 974 525 867 b 288 271 525 550 433 435 l 60 14 l 60 0 z "},"3":{"ha":751,"x_min":0,"x_max":0,"o":"m 351 -21 b 696 269 511 -21 696 69 b 440 550 696 397 596 529 l 440 568 b 628 785 542 604 628 688 b 365 993 628 910 514 993 b 94 807 224 993 104 904 b 147 743 90 765 118 743 b 208 806 171 743 197 758 b 369 974 229 896 267 974 b 525 783 456 974 525 918 b 271 508 525 654 406 551 l 271 481 b 590 240 451 515 590 394 b 376 4 590 85 506 4 b 169 144 271 4 206 64 b 107 196 156 175 131 196 b 54 144 78 196 54 174 b 351 -21 56 47 215 -21 z "},"4":{"ha":821,"x_min":0,"x_max":0,"o":"m 692 0 l 692 15 l 618 19 b 550 111 579 22 550 49 l 550 288 l 746 288 l 779 379 l 550 379 l 550 972 l 535 972 l 24 288 l 456 288 l 456 111 b 383 19 456 49 422 22 l 313 15 l 313 0 z m 456 814 l 456 379 l 138 379 z "},"5":{"ha":711,"x_min":0,"x_max":0,"o":"m 314 -21 b 642 278 486 -21 642 96 b 168 707 642 506 394 625 l 231 879 l 583 879 l 622 972 l 240 972 l 110 628 l 122 615 b 554 242 338 543 554 425 b 349 4 554 89 464 4 b 157 144 261 4 193 64 b 94 196 143 175 119 196 b 42 144 65 196 42 174 b 314 -21 42 47 194 -21 z "},"6":{"ha":761,"x_min":0,"x_max":0,"o":"m 390 -21 b 701 290 561 -21 701 96 b 425 576 701 461 569 576 b 194 469 318 576 246 524 l 169 469 b 551 976 203 697 414 913 l 544 993 b 65 365 317 915 65 686 b 390 -21 65 111 228 -21 z m 392 -3 b 172 354 268 -3 172 133 l 172 415 b 393 540 225 483 306 540 b 593 272 517 540 594 424 b 392 -3 593 79 497 -4 z "},"7":{"ha":700,"x_min":0,"x_max":0,"o":"m 256 -17 b 313 61 285 -17 313 6 b 488 682 315 290 372 508 l 672 960 l 672 974 l 89 974 l 38 724 l 54 724 b 281 882 103 867 156 882 l 588 882 l 454 683 b 201 75 354 535 211 288 b 256 -17 201 7 226 -17 z "},"8":{"ha":747,"x_min":0,"x_max":0,"o":"m 376 -21 b 682 257 549 -22 682 108 b 467 531 682 378 593 467 l 439 544 b 640 771 547 589 640 663 b 378 993 640 899 514 992 b 106 768 239 994 106 901 b 289 515 106 654 192 575 l 304 506 b 65 244 179 454 67 374 b 376 -21 64 92 204 -19 z m 351 593 b 199 797 276 633 199 699 b 378 972 199 910 279 974 b 544 785 467 971 544 893 b 415 558 543 707 503 618 z m 376 0 b 165 236 254 0 165 110 b 324 494 165 347 228 435 l 426 438 b 590 207 535 378 590 304 b 376 0 590 78 493 0 z "},"9":{"ha":761,"x_min":0,"x_max":0,"o":"m 213 -21 b 692 607 440 57 692 286 b 365 993 692 861 529 993 b 56 682 196 993 56 876 b 332 396 56 511 188 396 b 563 503 439 396 510 449 l 586 503 b 204 -4 554 275 343 60 z m 363 432 b 163 700 240 432 163 549 b 365 975 164 893 258 976 b 583 618 488 975 583 839 l 583 557 b 363 432 531 489 451 432 z "}," ":{"ha":347,"x_min":0,"x_max":0,"o":""},"A":{"ha":1104,"x_min":0,"x_max":0,"o":"m 1054 19 b 935 128 996 25 968 49 l 572 972 l 538 972 l 186 150 b 44 19 143 51 101 26 l 14 15 l 14 0 l 342 0 l 342 15 l 300 21 b 224 147 244 26 186 57 l 307 353 l 721 353 l 814 129 b 757 19 847 53 811 24 l 707 15 l 707 0 l 1090 0 l 1090 15 z m 500 826 l 524 826 l 708 382 l 319 382 z "},"B":{"ha":1015,"x_min":0,"x_max":0,"o":"m 568 0 b 943 263 835 0 943 124 b 656 514 943 396 839 501 l 656 538 b 875 750 778 554 875 628 b 553 972 875 860 783 972 l 69 972 l 69 957 l 129 953 b 213 844 193 949 213 910 l 213 128 b 129 19 213 63 193 24 l 71 15 l 71 0 z m 318 844 b 422 950 318 925 342 950 l 510 950 b 764 750 699 950 763 865 b 528 531 765 626 690 531 l 318 531 z m 458 24 b 318 128 356 24 318 25 l 318 506 l 522 506 b 824 263 743 506 822 397 b 503 24 825 118 721 24 z "},"C":{"ha":1092,"x_min":0,"x_max":0,"o":"m 561 -21 b 1021 343 790 -21 958 115 l 1003 347 b 607 39 942 168 794 39 b 186 500 350 39 186 238 b 572 971 186 744 324 971 b 878 590 776 971 950 833 l 892 582 l 1024 763 b 578 993 924 907 772 993 b 69 478 294 993 69 771 b 561 -21 69 199 271 -21 z "},"D":{"ha":1078,"x_min":0,"x_max":0,"o":"m 542 0 b 1008 493 847 0 1008 236 b 476 971 1008 738 833 971 l 69 972 l 69 957 l 128 953 b 211 844 193 949 211 910 l 211 128 b 128 19 211 63 193 24 l 69 15 l 69 0 z m 482 22 b 317 128 360 24 317 29 l 317 844 b 415 949 317 911 335 949 l 469 949 b 888 494 733 949 886 747 b 482 22 889 236 739 17 z "},"E":{"ha":967,"x_min":0,"x_max":0,"o":"m 890 0 l 913 293 l 897 293 b 632 25 847 125 781 25 l 435 25 b 317 128 339 25 317 35 l 317 492 l 600 492 b 731 375 675 492 724 447 l 736 331 l 751 331 l 751 681 l 736 681 l 731 636 b 600 518 724 564 675 518 l 317 518 l 317 844 b 451 950 317 940 336 950 l 610 950 b 872 696 788 950 840 822 l 889 696 l 856 972 l 69 972 l 69 957 l 135 953 b 211 844 199 949 211 910 l 211 128 b 135 19 211 63 199 24 l 69 15 l 69 0 z "},"F":{"ha":915,"x_min":0,"x_max":0,"o":"m 467 0 l 467 15 l 404 19 b 317 128 339 24 317 63 l 317 465 l 578 465 b 719 347 664 465 711 419 l 724 303 l 739 303 l 739 654 l 724 654 l 719 610 b 578 492 711 538 664 492 l 317 492 l 317 844 b 428 950 317 910 344 950 l 601 950 b 858 724 750 950 813 876 l 875 724 l 849 972 l 69 972 l 69 957 l 128 953 b 211 844 193 949 211 910 l 211 128 b 128 19 211 63 193 24 l 69 15 l 69 0 z "},"G":{"ha":1110,"x_min":0,"x_max":0,"o":"m 571 -21 b 976 143 764 -21 893 47 l 976 296 b 1053 397 976 354 990 390 l 1096 401 l 1096 417 l 669 417 l 669 401 l 769 397 b 876 289 872 393 876 356 l 876 196 b 610 8 876 75 738 8 b 186 500 353 8 186 238 b 572 971 186 744 324 971 b 878 590 776 971 950 833 l 892 582 l 1024 763 b 578 993 924 907 772 993 b 69 478 294 993 69 771 b 571 -21 69 199 271 -21 z "},"H":{"ha":1167,"x_min":0,"x_max":0,"o":"m 460 0 l 460 15 l 400 19 b 317 128 335 24 317 63 l 317 489 l 850 489 l 850 128 b 768 19 850 63 832 24 l 708 15 l 708 0 l 1097 0 l 1097 15 l 1039 19 b 956 128 974 24 956 63 l 956 844 b 1039 953 956 910 974 949 l 1097 957 l 1097 972 l 708 972 l 708 957 l 768 953 b 850 844 832 949 850 910 l 850 517 l 317 517 l 317 844 b 400 953 317 910 335 949 l 460 957 l 460 972 l 69 972 l 69 957 l 128 953 b 211 844 193 949 211 910 l 211 128 b 128 19 211 63 193 24 l 69 15 l 69 0 z "},"I":{"ha":529,"x_min":0,"x_max":0,"o":"m 460 0 l 460 15 l 400 19 b 318 128 336 24 318 63 l 318 844 b 400 953 318 910 336 949 l 460 957 l 460 972 l 69 972 l 69 957 l 129 953 b 213 844 193 949 213 910 l 213 128 b 129 19 213 63 193 24 l 69 15 l 69 0 z "},"J":{"ha":513,"x_min":0,"x_max":0,"o":"m 46 -222 b 310 90 181 -199 310 -126 l 310 861 b 397 954 310 931 346 950 l 451 958 l 451 972 l 54 972 l 54 958 l 119 954 b 206 861 171 951 206 931 l 206 90 b 42 -203 206 -90 168 -178 z "},"K":{"ha":1065,"x_min":0,"x_max":0,"o":"m 460 0 l 460 15 l 400 19 b 317 128 335 24 317 63 l 317 444 l 390 517 l 736 89 b 711 19 771 49 756 22 l 658 15 l 658 1 l 1057 1 l 1057 15 l 1017 19 b 858 110 958 25 903 56 l 465 592 l 724 840 b 938 956 793 908 874 950 l 974 958 l 974 972 l 610 972 l 610 958 l 658 954 b 686 847 708 950 738 897 l 326 483 l 304 483 l 317 589 l 317 844 b 400 953 317 910 335 949 l 460 957 l 460 972 l 69 972 l 69 957 l 128 953 b 211 844 193 949 211 910 l 211 128 b 128 19 211 63 193 24 l 69 15 l 69 0 z "},"L":{"ha":897,"x_min":0,"x_max":0,"o":"m 828 0 l 856 285 l 840 285 b 554 24 796 131 750 24 l 450 24 b 317 128 343 24 317 39 l 317 844 b 393 953 317 910 329 949 l 460 957 l 460 972 l 69 972 l 69 957 l 135 953 b 211 844 199 949 211 910 l 211 128 b 135 19 211 63 199 24 l 69 15 l 69 0 z "},"M":{"ha":1319,"x_min":0,"x_max":0,"o":"m 410 0 l 410 15 l 344 19 b 247 128 279 24 247 61 l 247 815 l 272 815 l 613 28 l 647 28 l 975 815 l 1001 815 l 1001 128 b 918 19 1001 63 983 24 l 860 15 l 860 0 l 1250 0 l 1250 15 l 1190 19 b 1107 128 1125 24 1107 63 l 1107 844 b 1190 953 1107 910 1125 949 l 1250 957 l 1250 972 l 1006 972 l 690 208 l 665 208 l 328 972 l 65 972 l 65 957 l 121 953 b 218 844 186 947 218 910 l 218 128 b 121 19 218 61 186 25 l 65 15 l 65 0 z "},"N":{"ha":1131,"x_min":0,"x_max":0,"o":"m 406 0 l 406 15 l 340 19 b 243 128 275 24 243 63 l 243 829 l 269 829 l 908 0 l 925 0 l 925 844 b 1021 953 925 911 957 947 l 1076 957 l 1076 972 l 733 972 l 733 957 l 799 953 b 896 844 864 949 896 910 l 896 225 l 871 225 l 307 972 l 79 972 l 79 958 l 129 954 b 214 863 164 951 214 929 l 214 128 b 118 19 214 61 182 25 l 63 15 l 63 0 z "},"O":{"ha":1140,"x_min":0,"x_max":0,"o":"m 571 -21 b 1071 486 853 -21 1071 186 b 571 993 1071 786 853 993 b 69 486 289 993 69 786 b 571 -21 69 186 289 -21 z m 571 0 b 196 486 371 1 196 194 b 571 972 196 778 371 971 b 946 486 768 971 946 778 b 571 0 946 194 768 1 z "},"P":{"ha":947,"x_min":0,"x_max":0,"o":"m 460 0 l 460 15 l 400 19 b 317 128 335 26 317 63 l 317 426 l 546 426 b 899 704 772 426 899 563 b 539 972 899 854 779 972 l 69 972 l 69 957 l 128 953 b 211 844 193 949 211 910 l 211 128 b 128 19 211 63 193 24 l 69 15 l 69 0 z m 317 844 b 404 950 317 911 333 949 l 499 950 b 778 704 675 953 779 851 b 478 453 776 556 686 453 l 317 453 z "},"Q":{"ha":1140,"x_min":0,"x_max":0,"o":"m 1017 -265 b 1228 -146 1100 -265 1165 -217 l 1214 -132 b 1075 -201 1172 -182 1124 -201 b 932 -136 1015 -201 965 -162 l 872 -89 b 706 -17 831 -56 769 -24 l 706 7 b 1071 486 917 50 1071 238 b 571 993 1071 786 853 993 b 69 486 289 993 69 786 b 571 -21 69 186 289 -21 b 753 -115 663 -21 693 -64 l 818 -174 b 1017 -265 883 -231 938 -265 z m 571 1 b 196 486 371 1 196 194 b 571 972 196 778 371 971 b 946 486 768 971 946 778 b 571 1 946 194 768 1 z "},"R":{"ha":1026,"x_min":0,"x_max":0,"o":"m 854 -17 b 1008 149 932 -17 1000 53 l 994 151 b 899 47 982 86 947 47 b 818 125 858 47 831 74 l 779 281 b 592 469 756 383 694 464 l 592 494 b 871 726 793 507 871 626 b 544 972 871 843 790 972 l 69 972 l 69 957 l 135 953 b 211 844 199 949 211 910 l 211 128 b 135 19 211 63 199 24 l 69 15 l 69 0 l 460 0 l 460 15 l 393 19 b 317 128 329 24 317 63 l 317 478 l 465 478 b 663 282 600 478 638 390 l 700 115 b 854 -17 721 28 768 -17 z m 317 844 b 451 950 317 938 335 950 l 497 950 b 756 726 693 950 756 846 b 483 503 754 606 683 503 l 317 503 z "},"S":{"ha":882,"x_min":0,"x_max":0,"o":"m 478 -21 b 806 246 635 -21 806 71 b 576 514 806 379 707 472 l 435 560 b 181 794 268 614 181 672 b 399 972 181 906 285 972 b 739 668 556 972 697 838 l 754 668 l 740 986 l 725 986 b 663 928 717 961 704 928 b 406 994 610 928 528 994 b 93 743 235 994 93 892 b 310 486 93 622 174 533 l 463 433 b 701 197 632 375 701 311 b 476 4 701 75 592 4 b 94 328 315 4 133 144 l 79 328 l 93 -15 l 108 -15 b 175 54 115 11 128 54 b 478 -21 246 54 322 -21 z "},"T":{"ha":882,"x_min":0,"x_max":0,"o":"m 636 0 l 636 15 l 571 19 b 493 128 506 24 493 63 l 493 844 b 574 954 493 911 506 956 l 621 954 b 840 718 756 954 794 874 l 854 718 l 829 972 l 53 972 l 28 718 l 42 718 b 260 954 88 874 126 954 l 308 954 b 388 844 376 954 388 913 l 388 128 b 311 19 388 63 376 24 l 246 15 l 246 0 z "},"U":{"ha":1099,"x_min":0,"x_max":0,"o":"m 553 -18 b 913 356 760 -18 913 121 l 913 844 b 1008 953 913 911 944 947 l 1064 957 l 1064 972 l 732 972 l 732 957 l 788 953 b 885 844 853 947 885 910 l 885 376 b 578 49 885 160 738 49 b 283 367 419 49 283 147 l 283 844 b 371 953 283 910 306 947 l 425 957 l 425 972 l 36 972 l 36 957 l 92 953 b 178 844 156 947 178 910 l 179 343 b 553 -18 179 103 347 -17 z "},"V":{"ha":1086,"x_min":0,"x_max":0,"o":"m 558 0 l 882 822 b 1033 951 921 922 976 944 l 1072 957 l 1072 972 l 729 972 l 729 957 l 771 951 b 846 825 825 946 882 918 l 599 181 l 574 181 l 301 843 b 361 953 271 919 306 949 l 411 957 l 411 972 l 14 972 l 14 957 l 61 953 b 185 844 121 947 151 924 l 540 0 z "},"W":{"ha":1544,"x_min":0,"x_max":0,"o":"m 1188 957 l 1229 951 b 1304 825 1283 946 1343 917 l 1039 168 l 1015 168 l 829 569 l 942 822 b 1092 951 985 919 1036 944 l 1132 957 l 1132 972 l 799 972 l 799 957 l 829 954 b 906 825 883 951 947 915 l 810 610 l 701 843 b 760 954 667 917 704 951 l 789 957 l 789 972 l 422 972 l 422 957 l 460 953 b 583 844 519 946 546 924 l 754 483 l 614 168 l 590 168 l 301 843 b 361 953 269 918 306 947 l 400 957 l 400 972 l 14 972 l 14 957 l 61 953 b 185 844 121 947 150 924 l 557 0 l 574 0 l 772 444 l 983 0 l 1000 0 l 1340 822 b 1492 951 1382 919 1435 944 l 1531 957 l 1531 972 l 1188 972 z "},"X":{"ha":976,"x_min":0,"x_max":0,"o":"m 379 0 l 379 15 l 344 19 b 283 133 293 26 228 46 l 454 413 l 479 413 l 663 132 b 624 19 717 50 688 26 l 594 15 l 594 0 l 963 0 l 963 15 l 929 19 b 789 129 869 28 851 36 l 528 521 l 736 843 b 917 953 794 932 875 947 l 954 957 l 954 972 l 597 972 l 597 957 l 633 953 b 693 839 682 946 743 921 l 525 561 l 499 561 l 317 840 b 358 953 268 914 294 944 l 385 957 l 385 972 l 14 972 l 14 957 l 47 953 b 189 843 107 944 132 926 l 451 453 l 240 129 b 60 19 176 32 101 25 l 22 15 l 22 0 z "},"Y":{"ha":951,"x_min":0,"x_max":0,"o":"m 50 954 b 185 846 110 947 136 935 l 419 431 l 419 128 b 342 19 419 63 407 24 l 278 15 l 278 0 l 667 0 l 667 15 l 601 19 b 525 128 536 24 525 63 l 524 446 l 735 846 b 903 954 786 942 850 947 l 938 958 l 938 972 l 611 972 l 611 958 l 647 954 b 697 842 706 947 740 929 l 519 490 l 496 490 l 299 853 b 351 956 257 931 286 947 l 378 958 l 378 972 l 14 972 l 14 958 z "},"Z":{"ha":860,"x_min":0,"x_max":0,"o":"m 768 0 l 801 328 l 785 328 b 522 26 738 160 693 26 l 190 26 l 781 943 l 781 972 l 103 972 l 82 661 l 97 661 b 339 946 144 814 169 946 l 654 946 l 61 32 l 61 0 z "},"a":{"ha":825,"x_min":0,"x_max":0,"o":"m 281 -21 b 553 196 408 -21 504 74 l 576 196 l 561 115 b 667 -14 542 21 606 -14 b 813 117 739 -14 799 38 l 797 121 b 717 43 783 72 757 43 b 660 117 685 43 660 65 l 660 474 b 381 715 660 650 543 717 b 83 518 224 715 89 610 b 138 458 82 482 104 458 b 206 519 174 458 199 483 b 383 696 215 578 244 696 b 563 488 501 697 563 611 l 563 458 b 444 379 563 410 525 389 l 333 365 b 67 164 192 347 67 297 b 281 -21 67 49 157 -21 z m 335 57 b 178 182 238 57 178 104 b 369 339 178 283 257 321 l 444 350 b 556 396 497 358 539 375 l 563 396 l 563 331 b 335 57 563 167 443 57 z "},"b":{"ha":849,"x_min":0,"x_max":0,"o":"m 435 -21 b 782 358 576 -21 782 101 b 486 715 782 615 632 715 b 211 531 357 715 268 633 l 188 531 l 204 683 l 204 1056 l 193 1063 l -42 968 l -36 951 l 35 974 b 107 903 81 986 107 969 l 107 0 l 124 0 l 183 56 l 197 56 b 435 -21 238 24 324 -21 z m 415 6 b 207 156 310 6 225 90 l 207 424 b 444 661 207 522 314 661 b 668 351 560 661 668 561 b 415 6 668 150 572 6 z "},"c":{"ha":776,"x_min":0,"x_max":0,"o":"m 410 -21 b 718 196 585 -21 688 103 l 701 203 b 451 38 663 110 565 38 b 175 361 314 38 175 144 b 411 692 175 538 274 692 b 592 526 508 692 571 631 b 657 461 599 485 622 461 b 714 522 692 461 715 488 b 433 715 708 628 571 715 b 67 335 235 715 68 560 b 410 -21 65 114 222 -21 z "},"d":{"ha":911,"x_min":0,"x_max":0,"o":"m 375 -21 b 638 164 504 -21 586 61 l 661 164 l 631 -8 l 640 -15 l 889 82 l 883 97 l 813 76 b 740 146 764 63 740 83 l 740 1056 l 731 1063 l 493 968 l 500 951 l 571 974 b 643 903 615 986 643 969 l 643 644 b 429 715 601 678 529 715 b 67 335 286 715 67 592 b 375 -21 67 78 229 -21 z m 417 33 b 181 342 303 33 181 132 b 438 689 181 543 281 689 b 643 538 542 689 626 604 l 643 271 b 417 33 643 172 549 33 z "},"e":{"ha":775,"x_min":0,"x_max":0,"o":"m 411 -21 b 717 196 585 -21 686 103 l 701 203 b 453 36 664 110 565 36 b 176 374 285 36 178 186 b 179 417 176 388 178 401 l 556 417 b 701 518 625 417 701 432 b 429 715 701 617 599 715 b 67 342 244 715 68 564 b 411 -21 65 121 225 -21 z m 181 443 b 429 696 197 589 308 696 b 594 542 539 696 594 618 b 465 443 594 467 522 443 z "},"f":{"ha":551,"x_min":0,"x_max":0,"o":"m 394 0 l 394 15 l 338 19 b 272 128 296 22 272 53 l 272 646 l 503 646 l 518 694 l 272 694 b 418 996 272 896 300 996 b 563 961 482 996 501 961 b 625 1010 599 961 625 985 b 535 1069 625 1046 589 1069 b 176 694 363 1069 189 931 l 46 694 l 31 646 l 176 646 l 176 128 b 113 19 176 53 153 22 l 57 15 l 57 0 z "},"g":{"ha":768,"x_min":0,"x_max":0,"o":"m 342 -319 b 738 -79 532 -319 738 -246 b 482 100 738 25 633 100 l 274 100 b 171 167 194 100 171 126 b 269 251 171 211 231 246 b 376 235 304 240 342 235 b 665 467 536 235 665 321 b 551 643 665 551 617 613 l 551 667 b 768 750 640 668 729 683 b 754 831 788 785 783 818 b 667 782 722 846 686 822 b 515 685 632 708 582 683 b 376 713 475 703 426 713 b 89 467 222 713 89 613 b 231 279 89 367 147 307 l 231 256 b 89 129 149 232 89 185 b 204 26 89 71 132 31 l 204 3 b 40 -153 113 -11 40 -62 b 342 -319 40 -264 164 -319 z m 376 253 b 192 467 285 253 192 310 b 376 694 192 621 285 694 b 564 467 471 694 564 621 b 376 253 564 310 471 253 z m 382 -297 b 144 -142 239 -297 144 -236 b 279 10 144 -51 197 -12 l 436 10 b 643 -117 549 10 643 -21 b 382 -297 643 -228 517 -297 z "},"h":{"ha":889,"x_min":0,"x_max":0,"o":"m 376 0 l 376 15 l 318 19 b 254 118 278 22 254 53 l 254 474 b 478 663 283 582 383 663 b 647 446 583 663 647 585 l 647 118 b 583 19 647 53 624 22 l 529 15 l 529 0 l 867 0 l 867 15 l 807 19 b 744 118 768 22 744 53 l 744 465 b 525 715 744 633 654 715 b 261 551 411 715 324 642 l 238 551 l 254 683 l 254 1056 l 243 1063 l 8 968 l 14 951 l 85 974 b 157 903 131 986 157 969 l 157 118 b 93 19 157 53 135 22 l 39 15 l 39 0 z "},"i":{"ha":424,"x_min":0,"x_max":0,"o":"m 218 871 b 296 942 261 871 296 901 b 218 1015 296 986 261 1015 b 140 942 176 1015 140 986 b 218 871 140 901 176 871 z m 396 0 l 396 15 l 338 19 b 274 118 297 22 274 53 l 274 704 l 264 711 l 28 617 l 33 601 l 104 622 b 176 553 150 636 176 619 l 176 118 b 114 19 176 53 154 22 l 58 15 l 58 0 z "},"j":{"ha":408,"x_min":0,"x_max":0,"o":"m 249 871 b 325 942 292 871 325 901 b 249 1015 325 986 292 1015 b 169 942 207 1015 169 986 b 249 871 169 901 207 871 z m 10 -314 b 300 -35 125 -311 300 -299 l 300 704 l 290 711 l 54 617 l 60 601 l 131 622 b 203 553 175 636 203 619 l 203 -8 b 10 -299 203 -203 133 -281 z "},"k":{"ha":808,"x_min":0,"x_max":0,"o":"m 376 0 l 376 15 l 318 19 b 254 107 278 22 254 42 l 254 321 l 301 368 l 543 72 b 531 18 568 42 564 22 l 486 14 l 486 0 l 800 0 l 800 14 l 767 19 b 660 83 721 25 693 40 l 369 433 l 522 579 b 701 676 579 635 636 668 l 731 681 l 731 694 l 438 694 l 438 681 l 479 676 b 485 581 521 671 532 626 l 264 363 l 242 363 l 254 467 l 254 1056 l 244 1063 l 8 968 l 17 951 l 85 974 b 157 914 131 986 157 981 l 157 107 b 94 19 157 42 135 22 l 39 15 l 39 0 z "},"l":{"ha":404,"x_min":0,"x_max":0,"o":"m 376 0 l 376 15 l 318 19 b 254 118 278 22 254 53 l 254 1056 l 244 1063 l 8 968 l 14 951 l 85 974 b 157 903 131 986 157 969 l 157 118 b 94 19 157 53 135 22 l 39 15 l 39 0 z "},"m":{"ha":1286,"x_min":0,"x_max":0,"o":"m 390 0 l 390 15 l 332 19 b 268 118 292 22 268 53 l 268 456 b 468 654 288 576 379 654 b 608 435 574 654 608 568 l 608 118 b 546 19 608 53 585 22 l 490 15 l 490 0 l 828 0 l 828 15 l 769 19 b 706 118 729 22 706 53 l 706 456 b 907 654 725 574 817 654 b 1047 443 1013 654 1047 572 l 1047 118 b 983 19 1047 53 1024 22 l 929 15 l 929 0 l 1267 0 l 1267 15 l 1207 19 b 1144 118 1168 22 1144 53 l 1144 472 b 944 715 1144 633 1069 715 b 714 546 821 715 744 618 l 692 546 b 504 715 682 651 615 715 b 275 546 397 715 321 635 l 250 546 l 279 703 l 269 710 l 22 613 l 28 596 l 99 617 b 171 547 147 632 171 610 l 171 118 b 107 19 171 53 149 22 l 53 15 l 53 0 z "},"n":{"ha":900,"x_min":0,"x_max":0,"o":"m 390 0 l 390 15 l 332 19 b 268 118 292 22 268 53 l 269 475 b 493 663 299 574 399 663 b 663 446 599 663 663 585 l 663 118 b 599 19 663 53 639 22 l 543 15 l 543 0 l 881 0 l 881 15 l 824 19 b 760 118 782 22 760 53 l 760 465 b 539 715 760 633 668 715 b 278 551 428 715 339 642 l 254 551 l 281 703 l 269 710 l 22 613 l 28 596 l 99 617 b 171 547 147 632 171 610 l 171 118 b 108 19 171 53 144 22 l 53 15 l 53 0 z "},"o":{"ha":867,"x_min":0,"x_max":0,"o":"m 435 -21 b 800 347 628 -21 800 114 b 433 715 801 581 626 715 b 67 346 239 715 65 579 b 435 -21 68 113 240 -21 z m 435 0 b 176 346 303 -3 176 110 b 433 694 176 583 303 694 b 692 347 564 694 692 582 b 435 0 693 110 565 0 z "},"p":{"ha":901,"x_min":0,"x_max":0,"o":"m 382 -306 l 382 -290 l 324 -286 b 260 -187 283 -283 260 -253 l 260 49 b 483 -22 301 14 383 -22 b 835 358 626 -22 835 101 b 528 715 835 615 674 715 b 267 529 397 715 317 632 l 242 529 l 271 701 l 261 708 l 14 611 l 19 596 l 90 617 b 163 547 139 631 163 610 l 163 -187 b 99 -286 163 -253 140 -283 l 44 -290 l 44 -306 z m 465 4 b 260 156 361 4 276 89 l 260 422 b 485 660 260 521 354 660 b 722 351 600 660 722 561 b 465 4 722 149 621 4 z "},"q":{"ha":890,"x_min":0,"x_max":0,"o":"m 890 -225 l 885 -208 l 814 -231 b 742 -160 769 -243 742 -226 l 742 694 l 726 694 l 665 639 l 651 639 b 425 715 613 671 536 715 b 67 336 283 715 67 593 b 363 -21 67 79 217 -21 b 638 164 492 -21 581 61 l 661 164 l 644 11 l 644 -312 l 656 -319 z m 404 33 b 181 343 289 33 181 133 b 433 689 181 544 278 689 b 643 539 539 689 624 604 l 643 271 b 404 33 643 172 535 33 z "},"r":{"ha":649,"x_min":0,"x_max":0,"o":"m 396 0 l 396 15 l 339 19 b 275 107 299 22 275 42 l 274 436 b 436 614 299 517 361 614 b 536 586 482 614 493 586 b 604 643 576 586 604 610 b 507 710 604 686 564 710 b 281 507 426 710 357 653 l 257 507 l 286 703 l 275 710 l 28 608 l 33 593 l 104 614 b 176 547 153 629 176 610 l 178 107 b 115 19 178 42 154 22 l 58 15 l 58 0 z "},"s":{"ha":706,"x_min":0,"x_max":0,"o":"m 374 -21 b 633 175 507 -21 633 47 b 451 375 633 279 558 342 l 342 410 b 188 558 244 440 188 478 b 342 694 188 642 251 694 b 585 479 464 694 558 603 l 601 479 l 588 710 l 574 710 b 538 672 568 690 563 672 b 344 715 489 672 460 715 b 90 521 213 715 90 643 b 261 324 90 419 164 353 l 371 290 b 531 136 476 258 531 211 b 363 0 531 57 468 0 b 89 236 238 0 118 100 l 74 236 l 88 -14 l 101 -14 b 151 33 106 6 117 33 b 374 -21 203 33 242 -21 z "},"t":{"ha":467,"x_min":0,"x_max":0,"o":"m 282 -14 b 439 142 383 -14 425 76 l 422 146 b 319 49 404 86 367 49 b 231 179 267 49 231 92 l 231 649 l 415 649 l 431 694 l 231 694 l 231 875 l 207 875 l 200 833 b 51 688 181 743 129 697 l 14 683 l 14 649 l 135 649 l 135 169 b 282 -14 135 71 174 -14 z "},"u":{"ha":900,"x_min":0,"x_max":0,"o":"m 374 -19 b 636 146 485 -19 574 54 l 661 146 l 632 -6 l 642 -12 l 892 89 l 885 104 l 814 83 b 742 153 767 69 742 90 l 742 701 l 732 708 l 494 614 l 501 597 l 572 619 b 644 560 617 632 644 626 l 644 225 b 419 36 614 117 519 36 b 254 251 314 36 254 113 l 254 701 l 243 708 l 8 614 l 14 597 l 85 619 b 157 560 131 632 157 626 l 157 232 b 374 -19 157 64 243 -19 z "},"v":{"ha":842,"x_min":0,"x_max":0,"o":"m 440 0 l 675 564 b 796 675 706 635 731 669 l 828 679 l 828 694 l 554 694 l 554 679 l 588 675 b 646 572 635 672 671 636 l 479 156 l 456 156 l 247 615 b 303 675 226 660 265 671 l 346 679 l 346 694 l 14 694 l 14 679 l 46 675 b 144 601 93 671 117 660 l 429 0 z "},"w":{"ha":1135,"x_min":0,"x_max":0,"o":"m 379 0 l 564 492 l 588 492 l 765 0 l 786 0 l 972 564 b 1090 675 993 632 1025 669 l 1121 679 l 1121 694 l 853 694 l 853 679 l 888 675 b 943 572 946 671 961 629 l 821 179 l 797 179 l 643 615 b 699 675 629 660 661 671 l 739 679 l 739 694 l 421 694 l 421 679 l 450 675 b 546 601 499 671 525 660 l 561 557 l 418 179 l 394 179 l 239 615 b 293 675 224 660 256 671 l 333 679 l 333 694 l 14 694 l 14 679 l 43 675 b 139 601 90 671 118 660 l 358 0 z "},"x":{"ha":761,"x_min":0,"x_max":0,"o":"m 301 0 l 301 17 l 272 18 b 231 115 221 22 196 65 l 350 288 l 369 288 l 499 92 b 467 17 531 43 515 18 l 446 17 l 446 0 l 740 0 l 740 17 l 713 18 b 613 89 671 22 647 38 l 415 376 l 571 585 b 715 676 608 635 657 672 l 747 678 l 747 694 l 460 694 l 460 678 l 489 676 b 531 579 540 672 567 629 l 411 406 l 393 406 l 264 603 b 294 678 232 651 246 676 l 315 678 l 315 694 l 22 694 l 22 678 l 49 676 b 150 606 90 672 114 657 l 346 318 l 192 110 b 46 18 153 60 106 22 l 14 17 l 14 0 z "},"y":{"ha":842,"x_min":0,"x_max":0,"o":"m 124 -300 b 436 -1 239 -300 354 -194 l 675 564 b 796 675 706 635 731 669 l 828 679 l 828 694 l 554 694 l 554 679 l 588 675 b 646 572 635 672 671 636 l 479 158 l 465 158 l 244 615 b 301 675 225 660 264 671 l 343 679 l 343 694 l 14 694 l 14 679 l 46 675 b 144 601 93 671 117 658 l 424 26 b 122 -182 336 -162 276 -206 b 31 -236 64 -174 31 -204 b 124 -300 31 -275 65 -300 z "},"z":{"ha":706,"x_min":0,"x_max":0,"o":"m 619 0 l 650 243 l 635 243 b 396 24 599 88 513 24 l 176 24 l 628 681 l 628 694 l 96 694 l 68 464 l 83 464 b 311 671 121 618 204 671 l 513 671 l 56 17 l 56 0 z "},".":{"ha":322,"x_min":0,"x_max":0,"o":"m 161 -11 b 239 60 204 -11 239 19 b 161 133 239 104 204 133 b 83 60 121 133 83 104 b 161 -11 83 19 121 -11 z "},",":{"ha":336,"x_min":0,"x_max":0,"o":"m 108 -164 b 253 22 178 -142 253 -81 b 163 133 253 97 213 133 b 85 60 121 133 85 104 b 158 -12 85 18 121 -12 b 201 1 181 -12 197 -3 b 104 -142 206 -67 161 -115 l 78 -153 l 83 -172 z "},"/":{"ha":628,"x_min":0,"x_max":0,"o":"m 128 -187 l 544 1021 l 500 1021 l 83 -187 z "},"-":{"ha":710,"x_min":0,"x_max":0,"o":"m 629 469 l 640 511 l 81 511 l 69 469 z "},"’":{"ha":322,"x_min":0,"x_max":0,"o":"m 108 675 b 253 860 178 696 253 758 b 163 972 253 935 213 972 b 85 897 121 972 85 943 b 158 826 85 857 121 826 b 201 839 181 826 197 836 b 104 697 206 772 161 724 l 78 686 l 83 667 z "},"'":{"ha":322,"x_min":0,"x_max":0,"o":"m 108 675 b 253 860 178 696 253 758 b 163 972 253 935 213 972 b 85 897 121 972 85 943 b 158 826 85 857 121 826 b 201 839 181 826 197 836 b 104 697 206 772 161 724 l 78 686 l 83 667 z "},"&":{"ha":1013,"x_min":0,"x_max":0,"o":"m 957 179 b 814 58 938 119 888 58 b 638 147 749 58 692 92 b 778 443 696 228 740 331 b 894 550 800 506 822 543 l 932 554 l 932 569 l 626 569 l 626 554 l 668 550 b 738 439 744 544 750 497 b 621 165 724 354 683 249 b 478 367 574 218 528 288 b 378 550 439 429 404 490 l 410 568 b 626 817 515 626 626 686 b 438 988 626 914 547 988 b 222 744 314 988 222 888 b 283 519 222 676 246 600 b 56 217 139 435 56 369 b 325 -19 56 106 149 -19 b 576 79 428 -19 510 17 b 760 -14 636 21 697 -14 b 971 174 888 -14 951 108 z m 440 972 b 550 822 515 972 550 903 b 426 601 550 728 525 658 l 369 569 b 315 782 336 646 315 718 b 440 972 315 879 356 972 z m 160 261 b 292 501 160 364 206 442 b 407 300 324 436 364 368 b 557 99 457 221 507 151 b 388 35 510 60 453 35 b 160 261 249 35 160 128 z "}}}
